# xmcd
#
# Track frame offsets:
#	150
#	12715
#	35930
#	52541
#	71058
#	82830
#	91195
#	108423
#	125769
#	137176
#	160455
#	179826
#	191422
#	225893
#	252818
#	267044
#	283201
#	295582
#	307267
#	319494
#
# Disc length: 4711
#
# Revision: 1
# Processed by: cddbd v1.5.1PL0 Copyright (c) Steve Scherf et al.
# Submitted via: CDex 1.51
# Normalized: r0:TDELIM( - ),TSWAP
#
DISCID=28126514
DTITLE=Cole Porter - The American Songbook CD 2
DYEAR=2004
DGENRE=Jazz
TTITLE0=Chet Baker - I Love You
TTITLE1=Charlie Parker - I Love Paris
TTITLE2=Oscar Peterson - Night And Day
TTITLE3=Charlie Shavers and Urbie Green - It's De-lovely
TTITLE4=Stan Kenton Orchestra - Begin The Beguine
TTITLE5=Oscar Moore - Love For Sale
TTITLE6=Bobby Hackett - All Through The Night
TTITLE7=Bud Powell - Just One Of Those Things
TTITLE8=Jack Sheldon - Get Out Of Town
TTITLE9=Tal Farlow - Anything Goes
TTITLE10=Ben Webster and Coleman Hawkins - You'd Be So Nice To Come Home To
TTITLE11=Ralph Burns Orchestra - All Of You
TTITLE12=Clifford Brown - I Get A Kick Out Of You
TTITLE13=Thad Jones-Mel Lewis Orchestra - I Love You
TTITLE14=Oscar Peterson - What Is This Thing Called Love
TTITLE15=Charlie Parker - I've Got You Under My Skin
TTITLE16=Art Tatum - Begin The Beguine
TTITLE17=Don Byas - Night And Day
TTITLE18=Les Brown And His Orchestra - It's All Right With Me
TTITLE19=Bill Evans - Just One Of Those Things
EXTD=YEAR: 2004
EXTT0=
EXTT1=
EXTT2=
EXTT3=
EXTT4=
EXTT5=
EXTT6=
EXTT7=
EXTT8=
EXTT9=
EXTT10=
EXTT11=
EXTT12=
EXTT13=
EXTT14=
EXTT15=
EXTT16=
EXTT17=
EXTT18=
EXTT19=
PLAYORDER=
